<?xml version="1.0" encoding="utf-8"?>
<!-- Generator: Adobe Illustrator 24.1.0, SVG Export Plug-In . SVG Version: 6.00 Build 0)  -->
<svg version="1.1" id="Layer_1" xmlns="http://www.w3.org/2000/svg" xmlns:xlink="http://www.w3.org/1999/xlink" x="0px" y="0px"
	 viewBox="0 0 381 422" style="enable-background:new 0 0 381 422;" xml:space="preserve">
<style type="text/css">
	.st0{fill:#75787B;}
	.st1{fill:none;}
	.st2{fill:#D22630;}
	.st3{fill:#4A4F54;}
</style>
<g>
	<path class="st0" d="M280.6,31.3c-13.4-7.9-32.1-4.6-52.9,7.5c-3.6-3.1-8.3-5-13.5-5c-11.4,0-20.7,9.3-20.7,20.7
		c0,3.1,0.7,6,1.9,8.6c-22.6,20.7-45.8,49.4-66,83.4c-49.8,83.7-63,166-28.2,184c14.5,7.5,39.5,0.7,67.2-18.5l-2.6-12.4
		c-24,19.4-46.1,28.1-59.7,19.8c-28.1-17-12.1-91.5,33.8-168.7c19.4-32.6,41.7-59.6,63-78.9c3.3,2.1,7.2,3.4,11.4,3.4
		c11.4,0,20.7-9.3,20.7-20.7c0-2.1-0.3-4-0.9-5.9c16.5-9.4,30.7-12.2,40.1-7.1c14.9,8,17.1,32.8,9.9,64.9l12.8-2.6
		C302.8,68.6,297.8,41.6,280.6,31.3z M214.3,69.5c-2.5,0-4.8-0.6-6.9-1.7c-3.5-1.8-6.2-4.9-7.4-8.7c-0.5-1.4-0.7-3-0.7-4.6
		c0-8.3,6.7-15,15-15c3.1,0,5.9,0.9,8.3,2.5c3.3,2.2,5.7,5.6,6.5,9.7c0.2,0.9,0.3,1.9,0.3,2.9C229.3,62.8,222.6,69.5,214.3,69.5z"/>
</g>
<path class="st0" d="M364.5,180.1c-2.1-32.6-75.2-71.7-172.5-71.2L182,123c84.5-0.9,170.6,25.8,170.5,58.7
	c-0.1,32.9-72.1,57.6-161.9,58.1c-46.5,0.3-88.1-7.6-117.7-19.2c1.2-5,0.5-10.5-2.4-15.3c-5.9-9.8-18.6-13-28.4-7.2
	c-1.3,0.8-2.5,1.7-3.5,2.7c-6.8-6.3-10.7-12.9-11-19.5c-0.9-17.4,20.5-32.5,53.4-42.9l-14-7.8c-31.8,13-51.5,30.9-51.4,50.4
	c0.1,10.8,6.1,21,16.9,30.1c-1.2,5-0.5,10.5,2.4,15.3c5.9,9.8,18.6,13,28.4,7.2c1.4-0.8,2.6-1.8,3.8-2.9
	c32,12.8,76.3,20.5,125.2,20.2C289.7,250.4,367,219.2,364.5,180.1z M61.2,228.2c-0.2,0.2-0.5,0.3-0.7,0.5
	c-7.1,4.2-16.3,1.9-20.6-5.2c-1.6-2.6-2.2-5.5-2.1-8.4c0.2-4.1,2-8,5.2-10.7c0.6-0.5,1.3-1,2-1.5c7.1-4.2,16.3-1.9,20.6,5.2
	c1.9,3.2,2.5,6.8,1.9,10.2C66.9,222.2,64.7,225.8,61.2,228.2z"/>
<g>
	<path class="st1" d="M222.5,318.5c-2.4,1.6-5.2,2.5-8.3,2.5c-8.3,0-15-6.7-15-15c0-1.6,0.3-3.1,0.7-4.6"/>
	<path class="st0" d="M298,264.2l-13.6-8.6c6.9,31.4,4.5,55.6-10.2,63.5c-9.4,5.1-23.6,2.2-40.1-7.1c0.6-1.9,0.9-3.9,0.9-5.9
		c0-11.4-9.3-20.7-20.7-20.7c-4.2,0-8.1,1.3-11.4,3.4c-21.3-19.3-43.6-46.4-63-78.9C94,132.6,78.1,58.1,106.1,41.1
		c14.1-8.6,37.3,1.1,62.4,22l0-14.6c-27.7-19.2-52.7-26-67.2-18.5c-34.8,18-21.6,100.3,28.2,184c20.2,34,43.4,62.7,66,83.4
		c-1.2,2.6-1.9,5.5-1.9,8.6c0,11.4,9.3,20.7,20.7,20.7c5.1,0,9.8-1.9,13.5-5c20.8,12.1,39.5,15.4,52.9,7.5
		C296.6,319.7,302,295.7,298,264.2z M222.5,318.5c-2.4,1.6-5.2,2.5-8.3,2.5c-8.3,0-15-6.7-15-15c0-1.6,0.3-3.1,0.7-4.6
		c1.2-3.8,3.9-6.9,7.4-8.7c2.1-1.1,4.4-1.7,6.9-1.7c8.3,0,15,6.7,15,15c0,1-0.1,1.9-0.3,2.9C228.2,312.9,225.9,316.3,222.5,318.5z"
		/>
</g>
<g>
	<path class="st2" d="M163.7,167.9v4.8c-2.4-2-5-3-7.6-3c-2.9,0-5.3,1-7.2,3c-2,2-3,4.4-3,7.3c0,2.8,1,5.2,3,7.2
		c2,2,4.4,2.9,7.3,2.9c1.5,0,2.7-0.2,3.8-0.7c0.6-0.2,1.2-0.5,1.8-0.9c0.6-0.4,1.3-0.9,2-1.4v4.9c-2.4,1.3-4.9,2-7.6,2
		c-4,0-7.4-1.3-10.2-4c-2.8-2.7-4.2-6-4.2-9.9c0-3.4,1.2-6.5,3.5-9.2c2.9-3.3,6.6-5,11.2-5C158.9,165.9,161.4,166.6,163.7,167.9z"/>
	<path class="st2" d="M186.1,186.9h-11.9l-3.1,6.6h-4.5l13.8-28.8l13.3,28.8H189L186.1,186.9z M184.3,183.1l-4.1-9.2l-4.3,9.2H184.3
		z"/>
	<path class="st2" d="M203.2,170.3v23.2H199v-23.2h-6.4v-3.8h17v3.8H203.2z"/>
	<path class="st2" d="M228.2,186.9h-11.9l-3.1,6.6h-4.5l13.8-28.8l13.3,28.8h-4.6L228.2,186.9z M226.5,183.1l-4.1-9.2l-4.3,9.2
		H226.5z"/>
	<path class="st2" d="M243.5,166.4v23.2h8.2v3.8h-12.4v-27.1H243.5z"/>
	<path class="st2" d="M258.9,181.8l-9.1-15.4h4.8l6.4,10.8l6.4-10.8h4.8l-9.1,15.4v11.7h-4.2V181.8z"/>
	<path class="st2" d="M290.4,170.5l-3.4,2c-0.6-1.1-1.2-1.8-1.8-2.1c-0.6-0.4-1.4-0.6-2.3-0.6c-1.2,0-2.1,0.3-2.9,1
		c-0.8,0.6-1.2,1.4-1.2,2.4c0,1.3,1,2.4,3,3.2l2.8,1.1c2.3,0.9,3.9,2,5,3.3c1,1.3,1.6,2.8,1.6,4.7c0,2.5-0.9,4.5-2.6,6.2
		c-1.7,1.6-3.9,2.5-6.4,2.5c-2.4,0-4.4-0.7-6-2.1c-1.6-1.4-2.5-3.3-2.9-5.9l4.3-0.9c0.2,1.6,0.5,2.7,1,3.3c0.9,1.2,2.1,1.8,3.8,1.8
		c1.3,0,2.4-0.4,3.3-1.3s1.3-1.9,1.3-3.2c0-0.5-0.1-1-0.2-1.4c-0.2-0.4-0.4-0.8-0.7-1.2c-0.3-0.4-0.7-0.7-1.2-1
		c-0.5-0.3-1.1-0.6-1.8-0.9l-2.7-1.1c-3.8-1.6-5.7-3.9-5.7-6.9c0-2,0.8-3.7,2.4-5.1c1.6-1.4,3.6-2.1,6-2.1
		C286.1,165.9,288.6,167.4,290.4,170.5z"/>
	<path class="st2" d="M304.5,170.3v23.2h-4.2v-23.2h-6.4v-3.8h17v3.8H304.5z"/>
	<path class="st2" d="M330.3,170.5l-3.4,2c-0.6-1.1-1.2-1.8-1.8-2.1c-0.6-0.4-1.4-0.6-2.3-0.6c-1.2,0-2.1,0.3-2.9,1
		c-0.8,0.6-1.2,1.4-1.2,2.4c0,1.3,1,2.4,3,3.2l2.8,1.1c2.3,0.9,3.9,2,5,3.3c1,1.3,1.6,2.8,1.6,4.7c0,2.5-0.9,4.5-2.6,6.2
		c-1.7,1.6-3.9,2.5-6.4,2.5c-2.4,0-4.4-0.7-6-2.1c-1.6-1.4-2.5-3.3-2.9-5.9l4.3-0.9c0.2,1.6,0.5,2.7,1,3.3c0.9,1.2,2.1,1.8,3.8,1.8
		c1.3,0,2.4-0.4,3.3-1.3s1.3-1.9,1.3-3.2c0-0.5-0.1-1-0.2-1.4c-0.2-0.4-0.4-0.8-0.7-1.2c-0.3-0.4-0.7-0.7-1.2-1
		c-0.5-0.3-1.1-0.6-1.8-0.9l-2.7-1.1c-3.8-1.6-5.7-3.9-5.7-6.9c0-2,0.8-3.7,2.4-5.1c1.6-1.4,3.6-2.1,6-2.1
		C326,165.9,328.5,167.4,330.3,170.5z"/>
</g>
<g>
	<g>
		<path class="st3" d="M208.9,385.8l4.9-0.7c1.1-0.2,1.5-0.7,1.5-1.4c0-1.4-1.1-2.6-3.3-2.6c-2.3,0-3.6,1.5-3.8,3.2l-4.8-1
			c0.3-3.1,3.2-6.5,8.5-6.5c6.3,0,8.6,3.6,8.6,7.5v9.8c0,1,0.1,2.5,0.2,3.1h-4.9c-0.1-0.5-0.2-1.6-0.2-2.4c-1,1.6-2.9,2.9-5.9,2.9
			c-4.2,0-6.8-2.9-6.8-6C203,388.3,205.6,386.3,208.9,385.8z M215.3,389.2v-0.9l-4.5,0.7c-1.4,0.2-2.5,1-2.5,2.5
			c0,1.2,0.8,2.3,2.6,2.3C213.2,393.8,215.3,392.7,215.3,389.2z M228.4,387.3l-7.1-9.9h6.4c0.7,1.1,3.3,4.8,4,5.9l3.9-5.9h6.1
			l-6.9,9.7l7.2,10.1h-6.3l-4.2-6.1c-0.7,1.1-3.4,5-4.1,6.1h-6.1L228.4,387.3z M260.3,377.4l4.3,12.8l3.7-12.8h5.3l-6.2,19.9H262
			l-4.6-13.6l-4.6,13.6h-5.4l-6.3-19.9h5.6l3.7,12.8l4.3-12.8H260.3z M279,385.8l4.9-0.7c1.1-0.2,1.5-0.7,1.5-1.4
			c0-1.4-1.1-2.6-3.3-2.6c-2.3,0-3.6,1.5-3.8,3.2l-4.8-1c0.3-3.1,3.2-6.5,8.5-6.5c6.3,0,8.6,3.6,8.6,7.5v9.8c0,1,0.1,2.5,0.2,3.1
			h-4.9c-0.1-0.5-0.2-1.6-0.2-2.4c-1,1.6-2.9,2.9-5.9,2.9c-4.2,0-6.8-2.9-6.8-6C273.1,388.3,275.7,386.3,279,385.8z M285.4,389.2
			v-0.9l-4.5,0.7c-1.4,0.2-2.5,1-2.5,2.5c0,1.2,0.8,2.3,2.6,2.3C283.3,393.8,285.4,392.7,285.4,389.2z M294,405.1l4.7-10.3
			l-8.4-17.3h6l5.3,11.6l4.9-11.6h5.7l-12.5,27.7H294z"/>
		<path class="st2" d="M360.3,367.8l0,10.1l-44.5-21.2V350l39,18.5v-10.1l10.2,4.9v6.8L360.3,367.8z M325.8,375v6.7l7.1,3.4
			l-11.5,12.1h7.6l13.6-14.2L325.8,375z M360.3,381.3l-39.2-18.6l0,6.7l31.2,14.8L360.3,381.3z"/>
	</g>
</g>
<g>
	<path class="st3" d="M19,387.7V398h-3.5v-25.6h9.8c2.7,0,4.9,0.7,6.4,2.1s2.3,3.3,2.3,5.6c0,2.3-0.8,4.2-2.3,5.6s-3.6,2.1-6.4,2.1
		H19z M19,385h6.3c1.7,0,3-0.5,3.9-1.4c0.9-0.9,1.3-2.1,1.3-3.5c0-1.4-0.4-2.6-1.3-3.5c-0.9-0.9-2.2-1.4-3.9-1.4H19V385z"/>
	<path class="st3" d="M35.9,388.3c0-2.8,0.8-5.1,2.3-7s3.6-2.7,6.2-2.7c2.6,0,4.7,0.9,6.2,2.7s2.3,4.1,2.3,7v0.4
		c0,2.8-0.8,5.2-2.3,7s-3.6,2.7-6.2,2.7s-4.7-0.9-6.2-2.7s-2.3-4.1-2.3-7V388.3z M39.3,388.7c0,2,0.4,3.7,1.3,5c0.8,1.3,2.1,2,3.8,2
		c1.7,0,2.9-0.7,3.8-2c0.9-1.3,1.3-3,1.3-5v-0.4c0-2-0.4-3.6-1.3-5c-0.9-1.3-2.1-2-3.8-2c-1.7,0-2.9,0.7-3.8,2c-0.8,1.3-1.3,3-1.3,5
		V388.7z"/>
	<path class="st3" d="M60.9,391.1l0.4,2.3h0.1l0.5-2.3l3.8-12.1h2.8l3.8,12.1l0.5,2.6H73l0.5-2.6l3-12.1h3.4l-5.5,19h-2.8l-3.7-11.6
		l-0.8-3.2l-0.1,0l-0.8,3.2L62.7,398h-2.8l-5.5-19h3.4L60.9,391.1z"/>
	<path class="st3" d="M90.1,398.4c-2.6,0-4.8-0.9-6.3-2.6s-2.3-4.1-2.3-6.9v-0.8c0-2.7,0.8-5,2.4-6.8s3.5-2.7,5.7-2.7
		c2.6,0,4.5,0.8,5.8,2.3s2,3.6,2,6.2v2.2H85l-0.1,0.1c0,1.8,0.5,3.3,1.4,4.5s2.1,1.8,3.7,1.8c1.2,0,2.2-0.2,3.1-0.5s1.6-0.8,2.3-1.4
		l1.4,2.3c-0.7,0.7-1.6,1.2-2.7,1.7C93.1,398.1,91.7,398.4,90.1,398.4z M89.6,381.4c-1.2,0-2.2,0.5-3,1.5c-0.8,1-1.3,2.2-1.5,3.7
		l0,0.1h8.8v-0.5c0-1.4-0.4-2.5-1.1-3.4C92.1,381.8,91,381.4,89.6,381.4z"/>
	<path class="st3" d="M109.2,382l-1.8-0.1c-0.9,0-1.7,0.2-2.3,0.7s-1.1,1-1.5,1.8V398h-3.5v-19h3.1l0.3,2.8c0.5-1,1.2-1.8,2-2.3
		s1.7-0.8,2.7-0.8c0.3,0,0.5,0,0.7,0.1s0.4,0.1,0.6,0.1L109.2,382z"/>
	<path class="st3" d="M119,398.4c-2.6,0-4.8-0.9-6.3-2.6s-2.3-4.1-2.3-6.9v-0.8c0-2.7,0.8-5,2.4-6.8s3.5-2.7,5.7-2.7
		c2.6,0,4.5,0.8,5.8,2.3s2,3.6,2,6.2v2.2h-12.3l-0.1,0.1c0,1.8,0.5,3.3,1.4,4.5s2.1,1.8,3.7,1.8c1.2,0,2.2-0.2,3.1-0.5
		s1.6-0.8,2.3-1.4l1.4,2.3c-0.7,0.7-1.6,1.2-2.7,1.7C121.9,398.1,120.6,398.4,119,398.4z M118.5,381.4c-1.2,0-2.2,0.5-3,1.5
		c-0.8,1-1.3,2.2-1.5,3.7l0,0.1h8.8v-0.5c0-1.4-0.4-2.5-1.1-3.4C121,381.8,119.9,381.4,118.5,381.4z"/>
	<path class="st3" d="M128.3,388.8c0-3.1,0.7-5.5,2-7.4s3.1-2.8,5.5-2.8c1.1,0,2.1,0.2,3,0.6s1.6,1,2.2,1.8v-10.5h3.5V398h-2.8
		l-0.4-2.3c-0.6,0.9-1.4,1.6-2.3,2s-2,0.7-3.1,0.7c-2.3,0-4.1-0.8-5.4-2.5s-2-3.9-2-6.6V388.8z M131.7,389.2c0,1.9,0.4,3.5,1.2,4.6
		s2,1.7,3.7,1.7c1,0,1.9-0.2,2.6-0.7s1.3-1.1,1.7-2V384c-0.4-0.8-1-1.4-1.7-1.9s-1.6-0.7-2.6-0.7c-1.7,0-2.9,0.7-3.7,2.1
		s-1.2,3.2-1.2,5.3V389.2z"/>
	<path class="st3" d="M172.6,389.2c0,2.7-0.7,5-2,6.6s-3.1,2.5-5.4,2.5c-1.3,0-2.3-0.2-3.3-0.7s-1.7-1.2-2.3-2.2l-0.4,2.5h-2.8
		v-27.4h3.5v10.7c0.6-0.8,1.3-1.5,2.2-1.9s1.9-0.7,3.1-0.7c2.3,0,4.2,0.9,5.5,2.8s2,4.3,2,7.4V389.2z M169.1,388.8
		c0-2.2-0.4-4-1.2-5.3s-2-2.1-3.7-2.1c-1.1,0-2,0.3-2.7,0.8s-1.3,1.2-1.7,2.1v8.2c0.4,0.9,1,1.7,1.7,2.2s1.6,0.8,2.7,0.8
		c1.6,0,2.8-0.6,3.6-1.7s1.2-2.7,1.2-4.6V388.8z"/>
	<path class="st3" d="M181.3,391l0.6,2.4h0.1l4.7-14.4h3.8l-8,21.9c-0.5,1.3-1.2,2.4-2.1,3.3s-2.1,1.4-3.6,1.4c-0.3,0-0.6,0-1.1-0.1
		s-0.8-0.1-1-0.2l0.4-2.7c-0.1,0,0.1,0,0.6,0s0.8,0.1,0.9,0.1c0.7,0,1.3-0.3,1.8-1s0.9-1.4,1.2-2.2l0.8-2l-7.1-18.6h3.9L181.3,391z"
		/>
</g>
</svg>
